<?xml version="1.0" standalone="no"?><!DOCTYPE svg PUBLIC "-//W3C//DTD SVG 1.1//EN" "http://www.w3.org/Graphics/SVG/1.1/DTD/svg11.dtd"><svg t="1652273396585" class="icon" viewBox="0 0 1024 1024" version="1.1" xmlns="http://www.w3.org/2000/svg" p-id="1941" xmlns:xlink="http://www.w3.org/1999/xlink" width="200" height="200"><defs><style type="text/css"></style></defs><path d="M950.857143 0a73.142857 73.142857 0 0 1 73.142857 73.142857v877.714286a73.142857 73.142857 0 0 1-73.142857 73.142857H73.142857a73.142857 73.142857 0 0 1-73.142857-73.142857V73.142857a73.142857 73.142857 0 0 1 73.142857-73.142857h877.714286z m0 73.142857H73.142857v877.714286h877.714286V73.142857z m-202.605714 401.115429c18.432 0 33.938286 13.165714 37.156571 30.939428l0.658286 6.802286a37.741714 37.741714 0 0 1-37.814857 37.741714H275.968a37.814857 37.814857 0 0 1-37.302857-30.866285L238.08 512c0-18.578286 13.385143-34.011429 31.012571-37.156571l6.875429-0.585143h472.210286z" p-id="1942" fill="#2947fb"></path></svg>