<svg xmlns:xlink="http://www.w3.org/1999/xlink" xmlns="http://www.w3.org/2000/svg" version="1.1" viewBox="0 0 120 120" height="120px" width="120px">
    <title>Blankpage_zwydsvg</title>
    <defs>
        <linearGradient id="linearGradient-1" y2="95.6935219%" x2="45.0878672%" y1="5.69995962%" x1="45.0878672%">
            <stop offset="0%" stop-color="#F0F0F0"></stop>
            <stop offset="100%" stop-color="#E9E9E9"></stop>
        </linearGradient>
        <path id="path-2" d="M5.05857699,5.86894438 L35.058577,1.10279524 C38.3312415,0.58286167 41.4057497,2.81439102 41.9256833,6.08705554 C41.9751508,6.39842334 42,6.71320575 42,7.02847856 L42,79.9422845 C42,82.8176413 39.9601329,85.2887809 37.1368628,85.8335953 L7.1368628,91.6227795 C3.88318168,92.2506515 0.736561181,90.1220126 0.108689196,86.8683315 C0.0363945536,86.4936951 -2.57683768e-15,86.1130168 0,85.7314687 L0,11.7946277 C-7.83311938e-16,8.84435167 2.14484342,6.33185401 5.05857699,5.86894438 Z"></path>
    </defs>
    <g fill-rule="evenodd" fill="none" stroke-width="1" stroke="none" id="调整">
        <g transform="translate(-633.000000, -570.000000)" id="切图备份">
            <g transform="translate(506.000000, 508.000000)" id="编组-7备份">
                <rect height="242" width="362" y="0" x="0" id="矩形备份-18"></rect>
                <g transform="translate(131.000000, 69.000000)" id="编组-3">
                    <path fill="#000000" fill-opacity="0.05" id="椭圆形" d="M72.3060667,102.786784 C77.4481281,99.2660871 69.1787029,97.7245294 69.8609979,93.5182724 C70.5432929,89.3120155 74.7745217,89.4887068 72.3060667,85.1299889 C69.3954373,79.7122218 39.7186486,79.7484077 7.41786774,90.3222802 C-9.2080312,98.116236 5.99099741,105.566118 15.3822025,105.566118 C24.7734077,105.566118 42.6775981,99.2480856 46.0478081,101.892876 C49.418018,104.537666 64.721853,107.516515 72.3060667,102.786784 Z"></path>
                    <g fill-rule="nonzero" transform="translate(69.826495, 26.960550)" id="编组-6">
                        <path fill="#E6E6E6" id="路径" d="M38.71694,9.00380878 L1.25889145,9.00380878 C0.563956966,9.00300776 0.000801019923,8.43985181 0,7.74491732 L0,1.25889145 C0.000801019923,0.563956966 0.563956966,0.000801019923 1.25889145,0 L38.71694,0 C39.4118744,0.000801019923 39.9750304,0.563956966 39.9758314,1.25889145 L39.9758314,7.74491732 C39.9750304,8.43985181 39.4118744,9.00300776 38.71694,9.00380878 Z"></path>
                        <path fill="#FFFFFF" id="路径" d="M2.10822679,8.15467298 C1.4132923,8.15387196 0.850136355,7.59071601 0.849335335,6.89578152 L0.849335335,2.10870901 C0.850137117,1.41377483 1.41329262,0.850619334 2.10822679,0.849817552 L37.8678042,0.849817552 C38.5627383,0.850619334 39.1258938,1.41377483 39.1266956,2.10870901 L39.1266956,4.10541293 C39.1241802,6.34071745 37.3127332,8.15216136 35.0774286,8.15467298 L2.10822679,8.15467298 Z"></path>
                        <path fill="#DADADA" id="路径" d="M23.7049635,3.9623164 L8.64968453,3.9623164 C8.47037693,3.9623164 8.3250194,3.73845877 8.3250194,3.4623164 C8.3250194,3.18617402 8.47037693,2.9623164 8.64968453,2.9623164 L23.7049635,2.9623164 C23.8842711,2.9623164 24.0296286,3.18617402 24.0296286,3.4623164 C24.0296286,3.73845877 23.8842711,3.9623164 23.7049635,3.9623164 L23.7049635,3.9623164 Z"></path>
                        <path fill="#EDEDED" id="路径" d="M31.3262106,6.29021478 L8.64968453,6.29021478 C8.47037693,6.29021478 8.3250194,6.06635716 8.3250194,5.79021478 C8.3250194,5.51407241 8.47037693,5.29021478 8.64968453,5.29021478 L31.3262106,5.29021478 C31.5055182,5.29021478 31.6508758,5.51407241 31.6508758,5.79021478 C31.6508758,6.06635716 31.5055182,6.29021478 31.3262106,6.29021478 L31.3262106,6.29021478 Z"></path>
                        <path fill="#E6E6E6" id="路径" d="M38.71694,21.6435316 L1.25889145,21.6435316 C0.563956966,21.6427306 0.000801019923,21.0795747 -1.20792265e-13,20.3846402 L-1.20792265e-13,13.8986143 C0.000801019923,13.2036798 0.563956966,12.6405239 1.25889145,12.6397229 L38.71694,12.6397229 C39.4118744,12.6405239 39.9750304,13.2036798 39.9758314,13.8986143 L39.9758314,20.3846402 C39.9750304,21.0795747 39.4118744,21.6427306 38.71694,21.6435316 Z"></path>
                        <path fill="#FFFFFF" id="路径" d="M2.10822679,20.7943958 C1.4132923,20.7935948 0.850136355,20.2304389 0.849335335,19.5355044 L0.849335335,14.7484319 C0.850137117,14.0534977 1.41329262,13.4903422 2.10822679,13.4895404 L37.8678042,13.4895404 C38.5627383,13.4903422 39.1258938,14.0534977 39.1266956,14.7484319 L39.1266956,16.7451358 C39.1241802,18.9804403 37.3127332,20.7918842 35.0774286,20.7943958 L2.10822679,20.7943958 Z"></path>
                        <path fill="#DADADA" id="路径" d="M23.7049635,16.6020393 L8.64968453,16.6020393 C8.53369284,16.6020393 8.42651208,16.5067398 8.36851623,16.3520393 C8.31052038,16.1973387 8.31052038,16.0067398 8.36851623,15.8520392 C8.42651208,15.6973387 8.53369284,15.6020393 8.64968453,15.6020393 L23.7049635,15.6020393 C23.8842711,15.6020393 24.0296286,15.8258969 24.0296286,16.1020393 C24.0296286,16.3781816 23.8842711,16.6020393 23.7049635,16.6020393 Z"></path>
                        <path fill="#EDEDED" id="路径" d="M31.3262106,18.9299376 L8.64968453,18.9299376 C8.53369284,18.9299376 8.42651208,18.8346382 8.36851623,18.6799377 C8.31052038,18.5252371 8.31052038,18.3346382 8.36851623,18.1799376 C8.42651208,18.0252371 8.53369284,17.9299376 8.64968453,17.9299376 L31.3262106,17.9299376 C31.5055182,17.9299376 31.6508757,18.1537953 31.6508757,18.4299376 C31.6508757,18.70608 31.5055182,18.9299376 31.3262106,18.9299376 L31.3262106,18.9299376 Z"></path>
                        <path fill="#E6E6E6" id="路径" d="M38.71694,34.2832545 L1.25889145,34.2832545 C0.563956966,34.2824535 0.000801019923,33.7192975 -1.20792265e-13,33.024363 L-1.20792265e-13,26.5383372 C0.000801019923,25.8434027 0.563956966,25.2802467 1.25889145,25.2794457 L38.71694,25.2794457 C39.4118744,25.2802467 39.9750304,25.8434027 39.9758314,26.5383372 L39.9758314,33.024363 C39.9750304,33.7192975 39.4118744,34.2824535 38.71694,34.2832545 Z"></path>
                        <path fill="#FFFFFF" id="路径" d="M2.10822679,33.4341187 C1.4132923,33.4333177 0.850136355,32.8701617 0.849335335,32.1752273 L0.849335335,27.3881547 C0.850137117,26.6932206 1.41329262,26.1300651 2.10822679,26.1292633 L37.8678042,26.1292633 C38.5627383,26.1300651 39.1258938,26.6932206 39.1266956,27.3881547 L39.1266956,28.3848587 C39.1241802,30.6201632 37.3127332,33.4316071 35.0774286,33.4341187 L2.10822679,33.4341187 Z"></path>
                        <path fill="#DADADA" id="路径" d="M23.7049635,29.2417621 L8.64968453,29.2417621 C8.47037693,29.2417621 8.3250194,29.0179045 8.3250194,28.7417621 C8.3250194,28.4656197 8.47037693,28.2417621 8.64968453,28.2417621 L23.7049635,28.2417621 C23.8842711,28.2417621 24.0296286,28.4656197 24.0296286,28.7417621 C24.0296286,29.0179045 23.8842711,29.2417621 23.7049635,29.2417621 Z"></path>
                        <path fill="#EDEDED" id="路径" d="M31.3262106,31.5696605 L8.64968453,31.5696605 C8.47037693,31.5696605 8.3250194,31.3458029 8.3250194,31.0696605 C8.3250194,30.7935181 8.47037693,30.5696605 8.64968453,30.5696605 L31.3262106,30.5696605 C31.5055182,30.5696605 31.6508758,30.7935181 31.6508758,31.0696605 C31.6508758,31.3458029 31.5055182,31.5696605 31.3262106,31.5696605 L31.3262106,31.5696605 Z"></path>
                    </g>
                    <g transform="translate(13.535869, 0.000000)" id="编组-6备份-2">
                        <path fill="url(#linearGradient-1)" id="矩形备份-2" d="M7.65057385,8.11528148 L37.2756661,2.97380767 C42.7171723,2.0294271 47.8939564,5.67506774 48.838337,11.1165739 C48.9375699,11.6883524 48.986842,12.2676838 48.9855954,12.8480081 L48.8344292,83.2170397 C48.8241644,87.9954003 45.4347835,92.0988417 40.7443742,93.0114734 L11.9469099,98.6147111 C6.52572939,99.6695319 1.27589312,96.129898 0.221072362,90.7087175 C0.0972776452,90.0724829 0.0356337036,89.4257194 0.0370104774,88.7775545 L0.189551219,16.9636112 C0.198832661,12.5940446 3.34535311,8.86245821 7.65057385,8.11528148 Z"></path>
                        <path fill="#E0E0E0" id="矩形备份-2" d="M10.866685,10.5104873 L40.6652055,5.50652949 C45.0224747,4.77482902 49.1478997,7.71393319 49.8796002,12.0712024 C49.9541034,12.5148685 49.9910498,12.9640284 49.9900465,13.4139054 L49.8305299,84.9374598 C49.822088,88.7225908 47.1620432,91.9837854 43.4558409,92.7527799 L13.6579816,98.9354933 C9.33184563,99.8331169 5.09715186,97.0537584 4.19952834,92.7276224 C4.08740766,92.1872518 4.03150369,91.6367297 4.03270955,91.0848512 L4.19156502,18.3825411 C4.20008742,14.4821509 7.02014331,11.1564232 10.866685,10.5104873 Z"></path>
                        <g transform="translate(6.000000, 6.000000)" id="矩形">
                            <mask fill="white" id="mask-3">
                                <use xlink:href="#path-2"></use>
                            </mask>
                            <use xlink:href="#path-2" fill="#FFFFFF" id="蒙版"></use>
                            <circle r="2" cy="79" cx="8" mask="url(#mask-3)" fill-rule="nonzero" fill="#E6E6E6" id="be454a6a-b415-4179-b5e8-57164f143cba备份-2"></circle>
                            <path mask="url(#mask-3)" fill="#E0E0E0" d="M11.696565,2.38995502 L28.696565,-0.219449036 C29.7883479,-0.387031548 30.8092653,0.36218089 30.9768478,1.45396378 C30.9922602,1.55437401 31,1.65581256 31,1.75739876 L31,3.21231261 C31,4.66851923 29.9542511,5.91443035 28.5200949,6.16688556 L13.3370023,8.83957259 C11.7901106,9.11187267 10.3153643,8.07861202 10.0430642,6.53172035 C10.0144093,6.36893638 10,6.20396423 10,6.03867744 L10,4.36680282 C10,3.37940013 10.7205926,2.53976128 11.696565,2.38995502 Z"></path>
                        </g>
                        <path fill="#EDEDED" id="矩形备份-2" d="M28.5654677,23.79519 L40.3170662,21.7964748 C42.4949299,21.4260631 44.5607152,22.8912924 44.9311269,25.0691561 C44.9693904,25.2941293 44.9883314,25.5219643 44.9877425,25.7501675 L44.8775817,68.4411402 C44.8726367,70.3574792 43.5092543,72.0010775 41.6268257,72.3600237 L16.7615612,77.1013949 C14.5915211,77.5151836 12.496914,76.0914606 12.0831253,73.9214205 C12.0353963,73.6711141 12.0116946,73.4168195 12.0123435,73.162004 L12.088485,43.2608671 C12.1130156,33.6275556 19.0685065,25.410436 28.5654677,23.79519 Z"></path>
                    </g>
                    <g transform="translate(42.535869, 29.000000)" id="编组-4备份">
                        <circle r="1.96051278" cy="59.7110461" cx="13.9599585" fill-rule="nonzero" fill="#E6E6E6" id="be5a0c73-855d-427d-a69e-6f1eaa4c04a0"></circle>
                        <polygon points="14.2257076 52.3745531 13.0102877 53.6990981 7.32341291 49.6415794 9.11722169 47.68676" fill-rule="nonzero" fill="#FFCBC1" id="路径"></polygon>
                        <path fill-rule="nonzero" fill="#2F2E41" id="路径" d="M15.819505,53.2148654 L11.9007218,57.4854318 L11.8467049,57.4358678 C10.9287425,56.5934663 10.8674011,55.1664404 11.7096891,54.2483738 L11.7097859,54.248268 L11.8337475,52.9251253 L13.7611633,52.0127534 L14.1032503,51.6399596 L15.819505,53.2148654 Z"></path>
                        <polygon points="15.0203071 67.1548949 13.2228014 67.1547674 12.3676476 60.2213669 15.0206896 60.2214944" fill-rule="nonzero" fill="#FFCBC1" id="路径"></polygon>
                        <path transform="translate(12.978437, 67.394685) rotate(-21.000000) translate(-12.978437, -67.394685)" fill-rule="nonzero" fill="#2F2E41" id="路径" d="M13.1174002,69.0298709 C12.3434329,69.304476 11.3902863,69.8275949 10.4729626,68.7246966 C9.86336734,67.7742147 10.4313499,66.1601 11.9358063,66.3610337 L13.7020456,65.3923972 C13.6948024,65.7828681 13.7868364,66.0373227 13.9781479,66.1557608 C14.0369604,66.1921708 14.2850541,66.2874051 14.7224291,66.4414636 L15.7249433,66.1689148 C15.6703726,66.8231847 15.5835196,67.2635186 15.4643846,67.4899166 C15.3268891,67.7512057 13.8913676,68.7552659 13.1174002,69.0298709 Z"></path>
                        <path fill-rule="nonzero" fill="#FA7268" id="a30b4662-e5c2-40ab-b3a2-3f3e92442cbc-40" d="M6.33977314,32.1536292 C6.33977314,32.1536292 -4.64132987,42.7559811 2.30073942,46.0377677 L4.44640039,46.0377677 C4.44640039,46.0377677 5.09120778,43.7469958 6.56736414,41.8152048 C6.77008455,41.5499134 7.52952818,41.6038054 7.74043298,41.3452578 C9.02818779,39.7666028 10.4242761,38.4108258 11.3884697,38.4646592 L12.0195089,45.785352 L11.708172,47.9309722 C11.5121666,49.281766 11.5637668,50.6569614 11.8604475,51.9892686 L11.8604475,51.9892686 L11.6408854,60.5529481 L15.4911517,60.5551625 C15.4911517,60.5551625 15.6466614,58.5481185 15.7767447,56.0378469 C15.8115934,55.365363 16.1008452,54.8968298 16.1285651,54.1810285 C16.1950218,52.4649842 15.9747687,50.467481 15.9323335,49.0670111 L18.8353691,33.6682509 L6.33977314,32.1536292 Z"></path>
                        <path fill="#FFCBC1" id="路径-2" d="M12,7.9520607 C12,7.9520607 12.101326,8.79205958 12.303978,10.4720573 L15.2174873,10.4720573 L14.9792099,7 C12.99307,7.63470713 12,7.9520607 12,7.9520607 Z"></path>
                        <path fill-rule="nonzero" fill="#FFFFFF" id="bce5c948-7db7-43f8-8cd2-61a9f17c0c07-41" d="M11.7905286,10.2707935 L10,12.666026 L5.3297266,14.6089529 L7.85388364,21.1722712 L7.94962313,26.0556852 L7.71470188,26.6447597 L7.98008767,27.6095078 C7.98008767,27.6095078 7.85762526,28.7385862 7.20477116,29.5768613 C6.0633397,31.0424761 4.32036974,32.6354423 6.0868424,33.0369566 C8.86367012,33.6681234 18.708775,35.0564098 19.2136064,33.9205391 C19.3882334,33.5276273 19.3665422,31.8660563 19.2634521,29.8605294 C19.2441742,29.4854932 18.8299103,29.0775308 18.8056911,28.6844825 C18.7875197,28.3895718 19.1603097,28.1121962 19.140096,27.8131066 C18.9148469,24.4801204 18.5825633,21.0461985 18.5825633,21.0461985 L19.5705872,11.8567753 L15.6127459,11.2453157 L15.5,9.99187444 L11.7905286,10.2707935 Z"></path>
                        <path fill-rule="nonzero" fill="#FA7268" id="aa56653d-a1eb-49b2-bba0-f0dc0c583c83-42" d="M1.77348381,45.4079523 L2.36043446,46.1496096 C2.36043446,46.1496096 7.75862603,49.926261 7.94399222,50.2792044 L8.79711523,51.0864783 L10.8613466,48.8799163 L9.787866,47.5344182 C8.92879903,46.4576656 7.81887839,45.6079165 6.55527241,45.0595625 L6.55527241,45.0595625 L4.91009059,43.599956 L1.77348381,45.4079523 Z"></path>
                        <path fill-rule="nonzero" fill="#FFCBC1" id="路径" d="M5.20355826,34.8080952 L6.18658867,25.2929015 L6.44605417,21.3767611 L3.69457894,20.8792395 C3.69457894,20.8792395 3.28255492,23.5714009 2.92210912,25.151281 C2.5664095,26.7102858 3.39596224,34.5991893 3.4179479,34.8072449 C3.00427309,35.1771605 2.86172599,35.7639562 3.05958929,36.2824295 C3.25745258,36.8009028 3.75469523,37.1435376 4.30964061,37.143802 C4.864586,37.1440661 5.36215474,36.8019051 5.56051174,36.2836205 C5.75886874,35.7653358 5.61688058,35.1784047 5.20355826,34.8080952 L5.20355826,34.8080952 Z"></path>
                        <path fill-rule="nonzero" fill="#FFFFFF" id="路径" d="M6.39841899,28.0971112 L6.36542648,26.7639381 L6.72592455,26.3814901 L7.44620168,22.6083572 L8.47960177,20.3981084 L8.35828467,13.333242 L5.58628931,14.2318005 C5.1247502,14.7360104 4.74142618,15.306072 4.44492159,15.9195743 C3.45545968,17.93107 2.5049603,22.361668 2.00740942,24.9350448 C1.9903253,24.9890146 1.95733026,25.0365617 1.91275098,25.0714513 C1.40395299,25.5385454 1.29357338,26.2989399 1.64856225,26.8914221 L6.39841899,28.0971112 Z"></path>
                        <path transform="translate(19.225128, 28.356191) scale(-1, 1) rotate(18.000000) translate(-19.225128, -28.356191)" fill-rule="nonzero" fill="#FFCBC1" id="路径" d="M18.0191157,27.109549 C17.6151906,24.0421704 16.453441,22.6891202 16.2792831,22.8360109 L13.2807808,23.8748022 C13.2807808,23.8748022 14.1726815,26.6991491 14.7765555,28.3767587 C15.3535803,29.979782 22.3329766,31.6790644 22.4439579,31.8723753 C22.2000196,32.4109716 22.3136847,33.0442318 22.729708,33.4643703 C23.1457314,33.8845089 23.7778421,34.0044014 24.3188133,33.7657762 C24.8597846,33.527151 25.1974348,32.9794919 25.1676548,32.3889794 C25.1378748,31.7984669 24.74684,31.287556 24.1846064,31.1045663 C24.1845975,31.1045663 18.0730383,27.2244529 18.0191157,27.109549 Z"></path>
                        <path fill-rule="nonzero" fill="#FFFFFF" id="路径" d="M16.8594781,12.0665544 C16.8594781,12.0665544 19.8029461,10.6239795 20.9445802,13.457263 C21.5704373,15.0567881 23.1711685,18.9387632 23.9688697,21.328426 C23.974148,21.3436253 23.9814564,21.3580415 23.9905965,21.3712831 C24.203945,21.6883017 24.3190771,22.0611927 24.32159,22.4433079 C24.3212992,22.4711303 23.9845767,23.0880582 23.9905965,23.1152231 C23.9905965,23.1152231 20.7166938,23.2329536 19.7546215,24.9284401 L19.4835523,24.2890036 L19.4157162,23.9988708 L16.8934599,16.7011133 L16.8594781,12.0665544 Z"></path>
                        <circle r="3.6041903" cy="5.6041903" cx="13.6041903" fill-rule="nonzero" fill="#FFDCD5" id="f8b50a69-a369-42b8-943f-f14ba4f1f80f"></circle>
                        <path transform="translate(12.864879, 4.593474) scale(-1, 1) rotate(1.000000) translate(-12.864879, -4.593474)" fill-rule="nonzero" fill="#2F2E41" id="路径" d="M16.7619217,2.30064941 C16.4746513,1.91720866 16.1332121,1.79503417 15.8173839,1.43428731 C15.7808044,1.38618201 16.3371433,0.894333218 16.2884192,0.834887246 C16.2373666,0.772600422 15.5811663,1.14273715 15.5401947,1.09444868 C15.4985249,1.0453372 15.7696442,0.634612296 15.700082,0.60136739 C15.6194142,0.562814916 15.3570894,0.888890222 15.305386,0.834887246 C14.9237608,0.520778637 14.442266,0.350433098 13.9460512,0.353975209 C12.8543281,0.326199935 12.2307623,0.0850514049 10.9401983,0.684451469 C9.64963434,1.28385153 8.28363885,3.15303864 8.44603397,3.40209003 C8.60842908,3.65114142 9.31829625,3.17202822 9.32541601,3.57991884 C9.32673203,3.65531397 9.39433281,4.02475442 9.50471001,4.05119695 C9.83974165,4.12511402 10.1393444,3.58293844 10.5123779,4.13412588 C10.8854115,4.68531331 10.7922624,4.61401165 11.0116603,4.77850451 C11.2820114,4.98119967 11.664121,4.88745807 12.0001759,4.93224975 C12.6074932,5.03540566 12.9510682,5.62846772 13.0617049,5.47083579 C13.1775019,5.31168377 13.5113761,4.93753233 13.9460512,5.28397861 C14.8293561,5.93666293 13.6482702,8.57139635 13.6482702,8.57139635 C13.9031634,8.70618357 14.1078561,9.12602224 14.5106463,8.75404385 C14.7791731,8.50605825 15.1756517,8.03424854 15.700082,7.3386147 C16.6109867,6.43786918 17.1229332,5.64851815 17.2359217,4.9705616 C17.3796285,4.10819207 17.2878015,3.00259249 16.7619217,2.30064941 Z"></path>
                    </g>
                    <g fill="#FA7268" transform="translate(102.173793, 23.000000)" id="编组-4">
                        <g transform="translate(2.340850, 11.378692) rotate(9.000000) translate(-2.340850, -11.378692) translate(0.340850, 9.878692)" id="编组-2">
                            <path id="路径" d="M1.94355234,2.53584107 C1.28272627,2.53584107 0.843565535,2.09668033 0.843565535,1.43585427 C0.843565535,0.775028202 1.39254285,0.335841071 1.94355234,0.335841071 C2.60448397,0.335841071 3.04356553,0.884818386 3.04356553,1.43585427 C3.04356553,2.09462177 2.49252965,2.53584107 1.94355234,2.53584107 Z"></path>
                        </g>
                        <path id="矩形备份" d="M7.63236354,0.840940568 C6.77010786,0.421734552 5.73127789,0.780897274 5.31207188,1.64315296 C5.28618598,1.6963971 5.26304074,1.75093057 5.2427269,1.80653961 L2.95132564,8.07923889 C2.76815221,8.58067522 3.02615527,9.13566109 3.5275916,9.31883451 C3.95138761,9.47364613 4.42591357,9.31467873 4.67092676,8.93581434 L8.31764398,3.29688817 C8.82830561,2.50725106 8.6021513,1.45315065 7.81251419,0.942489019 C7.75457693,0.905020746 7.69441578,0.871108732 7.63236354,0.840940568 Z"></path>
                    </g>
                </g>
            </g>
        </g>
    </g>
</svg>