<?xml version="1.0" standalone="no"?><!DOCTYPE svg PUBLIC "-//W3C//DTD SVG 1.1//EN" "http://www.w3.org/Graphics/SVG/1.1/DTD/svg11.dtd"><svg t="1647186955811" class="icon" viewBox="0 0 1024 1024" version="1.1" xmlns="http://www.w3.org/2000/svg" p-id="28958" xmlns:xlink="http://www.w3.org/1999/xlink" width="200" height="200"><defs><style type="text/css"></style></defs><path d="M528.85333333 486.08l-16.32 17.70666667c-6.61333333-3.73333333-14.18666667-6.08-22.4-6.08-5.76 0-11.2 1.17333333-16.32 3.2L409.70666667 406.4c-0.10666667-0.21333333-0.42666667-0.32-0.53333334-0.53333333 7.14666667-6.93333333 11.62666667-16.64 11.62666667-27.30666667 0-21.12-17.17333333-38.18666667-38.18666667-38.18666667-21.12 0-38.18666667 17.17333333-38.18666666 38.18666667 0 7.57333333 2.34666667 14.72 6.18666666 20.58666667L277.12 472.53333333c-6.4-4.69333333-14.08-7.57333333-22.61333333-7.57333333-21.12 0-38.18666667 17.17333333-38.18666667 38.18666667 0 21.12 17.17333333 38.18666667 38.18666667 38.18666666 21.12 0 38.18666667-17.17333333 38.18666666-38.18666666 0-5.01333333-1.06666667-9.81333333-2.77333333-14.18666667l76.16-76.16c5.01333333 2.45333333 10.56 3.84 16.42666667 3.84 3.09333333 0 6.08-0.42666667 8.96-1.17333333 0.32 0.85333333 0.53333333 1.70666667 1.06666666 2.45333333l64.10666667 94.4c-7.46666667 8.10666667-12.16 18.88-12.16 30.82666667 0 25.17333333 20.48 45.65333333 45.65333333 45.65333333 25.17333333 0 45.65333333-20.48 45.65333334-45.65333333 0-9.49333333-2.88-18.24-7.89333334-25.6l16.21333334-17.6-15.25333334-13.86666667z m-274.34666666 34.66666667c-9.6 0-17.49333333-7.78666667-17.49333334-17.49333334 0-9.6 7.78666667-17.49333333 17.49333334-17.49333333s17.49333333 7.78666667 17.49333333 17.49333333c0 9.6-7.89333333 17.49333333-17.49333333 17.49333334z m128.10666666-124.69333334c-9.6 0-17.49333333-7.78666667-17.49333333-17.49333333 0-9.6 7.78666667-17.49333333 17.49333333-17.49333333 9.6 0 17.49333333 7.78666667 17.49333334 17.49333333-0.10666667 9.6-7.89333333 17.49333333-17.49333334 17.49333333zM674.13333333 288.53333333c-27.2 0-49.38666667 22.18666667-49.38666666 49.38666667 0 8.96 2.56 17.28 6.82666666 24.53333333l-58.98666666 63.89333334 22.93333333 21.12 59.2-64.21333334c5.97333333 2.56 12.58666667 4.05333333 19.41333333 4.05333334 27.2 0 49.38666667-22.18666667 49.38666667-49.38666667 0.10666667-27.30666667-22.08-49.38666667-49.38666667-49.38666667z m0 67.62666667c-10.02666667 0-18.24-8.21333333-18.24-18.24 0-10.02666667 8.21333333-18.24 18.24-18.24 10.02666667 0 18.24 8.21333333 18.24 18.24 0.10666667 10.02666667-8.10666667 18.24-18.24 18.24z" fill="#5a60ff" p-id="28959"></path><path d="M877.65333333 582.93333333l-71.78666666-104.10666666c37.65333333-35.2 61.44-85.22666667 61.44-140.90666667 0-106.56-86.4-192.96-192.96-192.96s-192.96 86.4-192.96 192.96 86.4 192.96 192.96 192.96c28.58666667 0 55.68-6.4 80-17.49333333l72.32 104.74666666c9.38666667 13.54666667 28.16 16.96 41.70666666 7.68l1.70666667-1.17333333c13.44-9.38666667 16.85333333-28.16 7.57333333-41.70666667zM674.13333333 493.12c-85.76 0-155.2-69.54666667-155.2-155.2S588.48 182.61333333 674.13333333 182.61333333s155.2 69.54666667 155.2 155.2S759.89333333 493.12 674.13333333 493.12z" fill="#5a60ff" p-id="28960"></path><path d="M730.24 658.24c0 11.62666667-9.49333333 21.01333333-21.01333333 21.01333333H218.98666667c-11.62666667 0-21.01333333-9.49333333-21.01333334-21.01333333V249.38666667c0-11.62666667 9.49333333-21.01333333 21.01333334-21.01333334h236.16c5.86666667-12.05333333 12.69333333-23.68 20.37333333-34.56H200.96c-24.53333333 0-44.58666667 20.05333333-44.58666667 44.58666667v439.89333333c0 24.53333333 20.05333333 44.58666667 44.58666667 44.58666667h231.36v55.25333333H306.34666667c-13.54666667 0-24.64 11.09333333-24.64 24.64v1.70666667c0 13.54666667 11.09333333 24.64 24.64 24.64h315.41333333c13.54666667 0 24.64-11.09333333 24.64-24.64v-1.70666667c0-13.54666667-11.09333333-24.64-24.64-24.64H495.78666667v-55.25333333h231.36c24.53333333 0 44.58666667-20.05333333 44.58666666-44.58666667v-90.34666666c-13.33333333 4.48-27.2 8-41.49333333 10.24v60.05333333z" fill="#5a60ff" p-id="28961"></path></svg>