<?xml version="1.0" standalone="no"?><!DOCTYPE svg PUBLIC "-//W3C//DTD SVG 1.1//EN" "http://www.w3.org/Graphics/SVG/1.1/DTD/svg11.dtd"><svg t="1652287058323" class="icon" viewBox="0 0 1024 1024" version="1.1" xmlns="http://www.w3.org/2000/svg" p-id="6018" xmlns:xlink="http://www.w3.org/1999/xlink" width="200" height="200"><defs><style type="text/css"></style></defs><path d="M727.984 393.184a31.968 31.968 0 0 0-45.248 0.256L449.44 629.248l-103.28-106.112a32 32 0 1 0-45.888 44.608l126.032 129.504c0.048 0.096 0.192 0.096 0.256 0.192 0.064 0.064 0.096 0.192 0.16 0.256 2.016 1.984 4.512 3.2 6.88 4.544 1.248 0.672 2.24 1.792 3.52 2.304a31.728 31.728 0 0 0 24.064 0.064c1.232-0.512 2.208-1.536 3.392-2.176 2.4-1.344 4.896-2.528 6.944-4.544 0.064-0.064 0.096-0.192 0.192-0.256 0.064-0.096 0.16-0.128 0.256-0.192l256.224-259.008a32 32 0 0 0-0.224-45.248zM832.992 928h-640c-52.928 0-96-43.072-96-96V192c0-52.928 43.072-96 96-96h640c52.928 0 96 43.072 96 96v640c0 52.928-43.056 96-96 96z m-640-768c-17.632 0-32 14.368-32 32v640c0 17.664 14.368 32 32 32h640a32 32 0 0 0 32-32V192c0-17.632-14.336-32-32-32h-640z" fill="#2947fb" p-id="6019"></path></svg>