<svg xmlns:xlink="http://www.w3.org/1999/xlink" xmlns="http://www.w3.org/2000/svg" version="1.1" viewBox="0 0 120 120" height="120px" width="120px">
    <title>查询不到该企业</title>
    <defs>
        <linearGradient id="linearGradient-1" y2="100%" x2="50%" y1="0%" x1="50%">
            <stop offset="0%" stop-color="#F4F4F4"></stop>
            <stop offset="100%" stop-color="#DFDFDF"></stop>
        </linearGradient>
        <circle r="39" cy="39.3669287" cx="39.212285" id="path-2"></circle>
        <linearGradient id="linearGradient-4" y2="100%" x2="50%" y1="0.234835965%" x1="50%">
            <stop offset="0%" stop-color="#FFFFFF"></stop>
            <stop offset="100%" stop-color="#EBEBEB"></stop>
        </linearGradient>
        <filter id="filter-5" filterUnits="objectBoundingBox" height="348.3%" width="653.8%" y="-124.1%" x="-276.9%">
            <feGaussianBlur in="SourceGraphic" stdDeviation="12"></feGaussianBlur>
        </filter>
    </defs>
    <g fill-rule="evenodd" fill="none" stroke-width="1" stroke="none" id="调整">
        <g transform="translate(-627.000000, -1265.000000)" id="切图备份">
            <g transform="translate(506.000000, 1204.000000)" id="编组-8">
                <rect height="242" width="362" y="0" x="0" id="矩形备份-23"></rect>
                <g transform="translate(138.787715, 74.633071)" id="编组-7">
                    <g id="Fill-3">
                        <mask fill="white" id="mask-3">
                            <use xlink:href="#path-2"></use>
                        </mask>
                        <use xlink:href="#path-2" fill="url(#linearGradient-1)" id="蒙版"></use>
                        <path mask="url(#mask-3)" fill="url(#linearGradient-4)" d="M53.3903652,34.0664236 C56.0583606,35.4922205 59.894109,37.6309159 64.8976104,40.4825097 C65.8643213,40.9388684 66.4883048,41.9229971 66.5,43.0119786 L66.5,79.6296238 L45,79.6296238 L45,38.7392921 C44.9755556,34.8006073 44.9466036,33.5216917 46.9535117,32.3469512 C48.9604199,31.1722106 52.0623269,33.3567099 53.3903652,34.0664236 Z M37.0335072,20.4199289 C39.7949309,20.4199289 42.0335072,22.6585051 42.0335072,25.4199289 L42.0335072,78.3390452 L13,78.3390452 L13,25.4199289 C13,22.6585051 15.2385763,20.4199289 18,20.4199289 L37.0335072,20.4199289 Z M31.1059218,70.1849197 L31.2257055,69.13749 C31.2257055,68.5789534 30.7871231,68.140371 30.228757,68.140371 L24.7250079,68.140371 C24.1664714,68.140371 23.727889,68.5789534 23.727889,69.13749 L23.727889,70.1849197 C23.7253332,70.4505568 23.8297819,70.7054594 24.0168695,70.8932286 C24.2044682,71.0808273 24.4600524,71.1847649 24.7250079,71.1820387 L30.1088028,71.1820387 C30.6673394,71.1820387 31.1059218,70.7434563 31.1059218,70.1849197 Z M31.1059218,56.1071745 L31.2257055,55.0753646 C31.2257055,54.516828 30.7871231,54.0782456 30.228757,54.0782456 L24.7250079,54.0782456 C24.1664714,54.0782456 23.7278432,54.516828 23.7278432,55.0753646 L23.7278432,56.1071745 C23.7253332,56.3721301 23.8297819,56.6277142 24.0168695,56.8154834 C24.2044682,57.0024006 24.4600524,57.1070197 24.7250079,57.1042935 L30.1088028,57.1042935 C30.6673394,57.1042935 31.1059218,56.6657111 31.1059218,56.1071745 Z M31.1059218,42.0694708 L31.2257055,40.8527762 C31.2257055,40.2942397 30.7871231,39.8556573 30.228757,39.8556573 L24.7250079,39.8556573 C24.1664714,39.8556573 23.7278432,40.2942397 23.7278432,40.8527762 L23.7278432,42.0694708 C23.7253332,42.334256 23.8297819,42.5891586 24.0168695,42.7769277 C24.2044682,42.9646969 24.4600524,43.0691456 24.7250079,43.0664194 L30.1088028,43.0664194 C30.6673394,43.0664194 31.1059218,42.6271554 31.1059218,42.0694708 Z M59.4978685,55.8264976 L59.4978685,55.0406216 C59.4978685,54.482085 59.0592861,54.0435026 58.5007496,54.0435026 L52.9971709,54.0435026 C52.4386344,54.0435026 52,54.482085 52,55.0406216 L52,55.8264976 C51.9973257,56.0914532 52.1019449,56.3470373 52.2888621,56.5341249 C52.4766312,56.7217237 52.7322154,56.8261724 52.9971709,56.8236166 L58.5007496,56.8236166 C59.0592861,56.8236166 59.4978685,56.3843526 59.4978685,55.8264976 Z"></path>
                        <ellipse ry="14.5" rx="6.5" cy="46.5" cx="67.5" mask="url(#mask-3)" filter="url(#filter-5)" fill="#000000" fill-opacity="0.12" id="椭圆形"></ellipse>
                    </g>
                    <g transform="translate(71.272306, 62.866929) scale(-1, 1) translate(-71.272306, -62.866929) translate(50.772306, 25.366929)" id="编组-2">
                        <path fill="#000000" fill-opacity="0.05" id="椭圆形" d="M19.6858205,73.9220145 C30.3445044,75.3883852 40.4308611,72.3918397 39.9857982,67.7934152 C39.5407352,63.1949907 30.6582282,65.1196817 21.4059546,63.00891 C9.80338971,60.7697573 0,65.2489204 0,68.740925 C0,72.2329296 9.02713664,72.4556438 19.6858205,73.9220145 Z"></path>
                        <g transform="translate(11.173933, 0.000000)" id="undraw_add_notes_re_ln36">
                            <polygon points="14.9070617 65.729996 14.1638893 58.6785889 11.3173432 58.6785889 12.73877 65.729996" fill-rule="nonzero" fill="#FFCEC4" id="路径"></polygon>
                            <polygon points="1.06607407 65.729996 3.23436578 65.729996 4.2659845 57.3666862 1.06572036 57.3666862" fill-rule="nonzero" fill="#FFCEC4" id="路径"></polygon>
                            <path fill-rule="nonzero" fill="#2F2E41" id="路径" d="M1.35304976,64.7140744 L3.12764447,64.2960274 L3.12764447,64.2960274 C3.84953672,64.2960274 3.24490511,64.3652966 4.2659845,65.2720614 C5.28706388,66.1788263 6.7385788,64.9534325 7.10134426,67.0002791 C7.3268239,68.2725122 5.43316489,68.5392356 1.42036722,67.8004493 C0.907531751,67.706055 0.553327208,67.2334297 0.606652144,66.714713 L0.740681211,65.4109495 C0.77553241,65.0719355 1.02132923,64.7922189 1.35304976,64.7140744 Z"></path>
                            <g fill-rule="nonzero" transform="translate(15.644373, 18.232881) rotate(-37.000000) translate(-15.644373, -18.232881) translate(8.144373, 9.232881)" id="编组-3">
                                <path transform="translate(11.693736, 15.237110) rotate(-5.000000) translate(-11.693736, -15.237110)" fill="#FFCEC4" id="路径" d="M11.4646314,16.4771336 C11.2321822,16.1249007 11.1676893,15.6877983 11.2885067,15.2834422 L9.24758479,14.494383 L11.4552599,13.3586516 L12.582612,14.2018502 C13.2633967,14.455408 14.2924517,15.052876 14.1208936,15.758799 C13.9493356,16.4647219 13.214116,17.1956377 12.492894,17.1084705 C12.0736083,17.0605476 11.6970805,16.8293665 11.4646314,16.4771336 Z"></path>
                                <path fill="#FFFFFF" id="路径" d="M9.41538776,14.9811722 L6.29604758,13.2548764 C4.47994418,12.3458756 4.11115164,11.7593516 3.34370474,9.87904861 L1.48385497,4.15501957 C0.641047276,2.91357591 -0.0595807688,1.35734282 1.16773813,0.494095751 C1.76311129,0.07546213 2.50163538,-0.0866044253 3.21759441,0.044261884 C3.94191822,0.174504855 5.88346871,1.98343056 6.2999778,2.5901664 L7.66245685,10.3169048 L10.7925049,12.6822482 C11.1046128,12.9472646 11.5869134,13.1756615 11.4454845,13.5599048 L10.7629846,14.4494738 C10.6944123,14.6352207 10.5705359,14.7954761 10.4080568,14.9086335 C10.244713,15.0228187 10.0502235,15.0840246 9.85092611,15.0840246 C9.69974541,15.0840246 9.55065142,15.0487032 9.41538776,14.9811722 Z"></path>
                                <path fill="#D8D8D8" id="路径" d="M3.52254022,7.66461191 C5.09649255,3.87715768 6.02230507,2.18567584 6.2999778,2.5901664 L6.52196361,3.84906744 L3.52254022,7.66461191 Z"></path>
                            </g>
                            <path stroke-linejoin="round" stroke-linecap="round" stroke-width="2.5" stroke="#FA7268" id="路径-2" d="M28.1289165,16.3550829 C28.1289165,16.3550829 17.8812166,31.7374167 17.8812166,31.7374167 C17.8812166,31.7374167 28.1289165,16.3550829 28.1289165,16.3550829 Z"></path>
                            <path fill-rule="nonzero" fill="#2F2E41" id="路径备份" d="M12.7064131,64.7967174 L14.6385833,64.5633425 L14.6385833,64.5633425 C15.3604755,64.5633228 14.7558439,64.4312077 15.7769233,65.3379726 C16.7980027,66.2447375 18.8493227,65.3379726 18.6588206,67.3953488 C18.5954469,68.0797696 17.3490905,68.0857231 15.7769233,67.9988352 C15.3229001,67.973743 14.4011611,67.8852733 13.011706,67.7334261 C12.4651673,67.6737131 12.0693485,67.1839893 12.1255717,66.6370805 L12.2689905,65.2419783 C12.2928796,65.0095976 12.4744933,64.8247295 12.7064131,64.7967174 Z"></path>
                            <path fill-rule="nonzero" fill="#FA7268" id="路径" d="M1.45078137,63.087998 C1.2296006,63.087998 1.01652611,63.004727 0.853882148,62.8548341 C0.677469079,62.6938864 0.574279675,62.4679857 0.568127476,62.2292643 C0.449447754,52.1936507 0.304075263,44.0924169 0.132010003,37.9255629 C0.110841445,37.1668774 0.351465493,34.7789506 0.853882148,30.7617824 L12.0453075,34.1509072 L14.0596217,48.3309402 L15.1477932,61.4400006 C15.1253849,61.9114248 14.7364483,62.2820148 14.264492,62.2816356 L12.1936496,62.2816356 C11.7517696,62.2798314 11.3783774,61.9535568 11.3173432,61.5159085 C10.0000192,52.3306671 9.16959383,47.4669943 8.82606706,46.9248902 C8.48254028,46.3827861 7.69002012,44.0875636 6.44850656,40.0392227 C6.42190128,39.9971483 5.67115818,47.3857687 4.19627728,62.2050841 C4.14561652,62.6312639 3.79588505,62.9593183 3.36733901,62.9826431 L1.50112253,63.0864434 C1.48433153,63.0873931 1.46757944,63.087998 1.45078137,63.087998 Z"></path>
                            <polygon points="10.3144391 10.2144071 10.0834194 12.2951257 7.27592636 11.7328059 7.36480224 9.43367852" fill="#FFCEC4" id="路径-3"></polygon>
                            <circle r="4.34383993" cy="6.54325336" cx="9.99067606" fill-rule="nonzero" fill="#FFDCD5" id="椭圆形"></circle>
                            <path transform="translate(9.659144, 5.705153) scale(-1, 1) rotate(-11.000000) translate(-9.659144, -5.705153)" fill-rule="nonzero" fill="#2F2E41" id="路径" d="M14.1790614,3.41943755 C13.8984717,3.04491403 12.9209984,2.45628756 12.612515,2.10393016 C12.5767862,2.05694359 13.120187,1.57653314 13.072596,1.51846964 C13.0227307,1.45763134 12.3817909,1.81916024 12.3417721,1.77199475 C12.3010713,1.72402541 12.5658855,1.32285224 12.4979411,1.29038047 C12.4191492,1.25272457 12.1629251,1.57121673 12.1124241,1.51846964 C11.7396738,1.21166588 11.2693766,1.04528186 10.7847017,1.0487416 C9.71836752,1.02161226 9.50673131,0.654988743 7.53645209,1.27865311 C5.56617288,1.90231747 5.61481999,3.29507145 4.78620391,4.30560572 C3.95758783,5.31613999 6.43540696,4.36379408 6.44236114,4.76219887 C6.44364657,4.83584063 6.64907069,4.97911465 6.75688098,5.00494224 C7.08412118,5.0771403 7.37675642,4.54757346 7.74111476,5.08594258 C8.10547311,5.6243117 8.01449027,5.55466822 8.2287859,5.71533566 C8.49284973,5.91331698 8.86607308,5.82175542 9.19431278,5.86550544 C9.60913617,5.9142224 10.2017009,6.46356733 10.1438142,7.28161708 C10.1412319,7.31810878 10.2254903,7.33296581 10.3965893,7.32618816 C10.7724805,6.28334686 11.2283494,5.9754674 11.7641961,6.40254979 C12.8521325,7.28239202 11.0869866,8.48994436 10.9754889,10.4931825 C11.5156496,10.0479419 11.95815,10.6031246 12.1141564,10.1246126 C12.2181606,9.80560458 12.6969838,9.20170672 13.550626,8.31291903 C14.1678733,7.45133564 14.5316773,6.68944888 14.6420382,6.02725877 C14.7824029,5.18494434 14.6927115,4.10505637 14.1790614,3.41943755 Z"></path>
                            <path fill-rule="nonzero" fill="#FFFFFF" id="路径" d="M11.6610921,34.9819573 L0.467354328,33.120224 C0.0125873448,33.0037677 0.122365413,29.2609011 0.213762801,28.8004431 C0.365993561,27.9236439 0.450524069,27.4532242 0.467354328,27.389184 C1.08376667,25.0436978 1.94910006,21.8998279 3.06335449,17.9575744 C3.41915208,16.1793093 4.53634318,12.8029344 6.20168136,12.084974 C7.82504827,11.3664951 6.59682855,10.8098865 8.09785685,11.7577504 C8.26936236,11.8647501 10.3691527,11.4750949 10.4516293,11.7577504 C10.7887736,12.9131778 11.1919279,14.8827314 11.6610921,17.6664111 L12.7648604,34.113293 C12.7678933,34.3495246 12.6763961,34.5771725 12.510722,34.7455967 C12.345048,34.914021 12.3894046,34.4991437 12.153155,34.5 C12.0784035,34.4998771 11.7334961,35.0005295 11.6610921,34.9819573 Z"></path>
                            <g fill-rule="nonzero" transform="translate(13.177822, 22.355534) rotate(-48.000000) translate(-13.177822, -22.355534) translate(8.177822, 10.855534)" id="编组-4">
                                <polygon points="0.40964529 10.0612929 3.97461103 2.29522005 1.59212282 8.30842706 1.33913922 13.5237371 1.19582 13.6527823" opacity="0.2" fill="#000000" id="路径"></polygon>
                                <path fill="#FFCEC4" id="路径" d="M1.77688457,20.9708627 C1.89260667,20.563547 2.18280115,20.2284096 2.56938205,20.0556297 L2.06324274,15.0089772 L4.38619865,16.2679891 L4.51411845,20.8663991 C4.76688544,21.550078 4.46835109,22.3147619 3.81922542,22.6463399 C3.17009974,22.9779179 2.37556211,22.7715829 1.96979449,22.1660577 C1.73180012,21.8158315 1.66116247,21.3781784 1.77688457,20.9708627 Z"></path>
                                <path fill="#FFFFFF" id="路径" d="M2.56938205,20.0556297 C2.48790941,20.0556297 2.40676747,20.0452664 2.32784037,20.0250596 C1.98199826,19.9368575 1.71231951,19.6662004 1.62537045,19.3200411 L1.23033571,13.681105 C0.734442552,11.7116532 0.970837544,9.62911867 1.8955432,7.82092349 L3.8924311,2.61908287 C4.28341547,1.17042888 5.71594093,-0.310551379 7.17078179,0.0567431138 C7.87476664,0.234508357 8.47825411,0.686769979 8.84649456,1.3125448 C9.22233375,1.94730535 9.32772112,2.7063402 9.13903001,3.41948234 L5.03761184,10.4050263 L4.95749715,18.548269 C4.96016619,18.9576923 4.70701567,19.3252616 4.32354949,19.4687478 L2.90738265,19.9946611 C2.79924392,20.0349442 2.68478012,20.0556297 2.56938205,20.0556297 Z"></path>
                            </g>
                        </g>
                    </g>
                    <g stroke-width="3" stroke="#FA7268" transform="translate(36.001771, 22.201120)" id="编组-6">
                        <circle r="10" cy="10.5849923" cx="10.5" id="椭圆形"></circle>
                    </g>
                </g>
            </g>
        </g>
    </g>
</svg>