<?xml version="1.0" standalone="no"?><!DOCTYPE svg PUBLIC "-//W3C//DTD SVG 1.1//EN" "http://www.w3.org/Graphics/SVG/1.1/DTD/svg11.dtd"><svg t="1652273338807" class="icon" viewBox="0 0 1024 1024" version="1.1" xmlns="http://www.w3.org/2000/svg" p-id="6377" xmlns:xlink="http://www.w3.org/1999/xlink" width="200" height="200"><defs><style type="text/css"></style></defs><path d="M51.2 0h921.6a51.2 51.2 0 0 1 51.2 51.2v921.6a51.2 51.2 0 0 1-51.2 51.2H51.2a51.2 51.2 0 0 1-51.2-51.2V51.2A51.2 51.2 0 0 1 51.2 0z m51.2 102.4v819.2h819.2V102.4H102.4z m439.532308 619.126154l200.861538-267.815385A37.415385 37.415385 0 0 0 712.861538 393.846154h-401.723076a37.415385 37.415385 0 0 0-29.932308 59.864615l200.861538 267.815385a37.415385 37.415385 0 0 0 59.864616 0z" p-id="6378" fill="#2947fb"></path></svg>